<svg width="242" height="193" viewBox="0 0 242 193" fill="none" xmlns="http://www.w3.org/2000/svg">
<path d="M117.461 10.0875L121.881 7.74943L117.781 -8.58307e-06L113.198 7.47385L117.461 10.0875ZM8.93091 187.087L4.6684 184.474L4.76837e-06 192.087H8.93091V187.087ZM173.725 187.087V192.087H182.127L178.12 184.703L173.725 187.087ZM157.16 156.56L161.555 154.175C160.68 152.564 158.994 151.56 157.16 151.56V156.56ZM60.911 156.56L56.6693 153.913L51.8967 161.56H60.911V156.56ZM133.455 40.3213L137.696 42.9685C138.64 41.4571 138.707 39.558 137.874 37.9833L133.455 40.3213ZM117.461 10.0875L113.198 7.47385L4.6684 184.474L8.93091 187.087L13.1934 189.701L121.723 12.7011L117.461 10.0875ZM8.93091 187.087V192.087H173.725V187.087V182.087H8.93091V187.087ZM173.725 187.087L178.12 184.703L161.555 154.175L157.16 156.56L152.765 158.945L169.33 189.472L173.725 187.087ZM157.16 156.56V151.56H60.911V156.56V161.56H157.16V156.56ZM60.911 156.56L65.1528 159.207L137.696 42.9685L133.455 40.3213L129.213 37.6741L56.6693 153.913L60.911 156.56ZM133.455 40.3213L137.874 37.9833L121.881 7.74943L117.461 10.0875L113.041 12.4255L129.035 42.6593L133.455 40.3213Z" fill="white"/>
<path d="M93.6162 141.883L89.3804 139.227L84.5478 146.932L93.643 146.883L93.6162 141.883ZM124.176 93.1571L128.633 90.8915L124.632 83.0194L119.94 90.5004L124.176 93.1571ZM134.172 112.824L129.715 115.089C130.568 116.767 132.29 117.824 134.172 117.824V112.824ZM153.022 112.824V117.824C154.806 117.824 156.454 116.874 157.348 115.33C158.243 113.787 158.247 111.884 157.36 110.337L153.022 112.824ZM134.172 79.9481L129.942 77.2822L128.339 79.8263L129.835 82.4351L134.172 79.9481ZM150.452 54.1172L154.712 51.5004L150.506 44.6528L146.222 51.4514L150.452 54.1172ZM232.431 187.587V192.587H241.37L236.691 184.971L232.431 187.587ZM195.431 187.587L191.015 189.933C191.883 191.566 193.581 192.587 195.431 192.587V187.587ZM170.934 141.469L175.35 139.124L173.931 136.453L170.907 136.469L170.934 141.469ZM93.6162 141.883L97.8521 144.54L128.412 95.8137L124.176 93.1571L119.94 90.5004L89.3804 139.227L93.6162 141.883ZM124.176 93.1571L119.719 95.4226L129.715 115.089L134.172 112.824L138.629 110.558L128.633 90.8915L124.176 93.1571ZM134.172 112.824V117.824H153.022V112.824V107.824H134.172V112.824ZM153.022 112.824L157.36 110.337L138.51 77.4611L134.172 79.9481L129.835 82.4351L148.684 115.311L153.022 112.824ZM134.172 79.9481L138.402 82.614L154.682 56.7831L150.452 54.1172L146.222 51.4514L129.942 77.2822L134.172 79.9481ZM150.452 54.1172L146.191 56.7341L228.17 190.204L232.431 187.587L236.691 184.971L154.712 51.5004L150.452 54.1172ZM232.431 187.587V182.587H195.431V187.587V192.587H232.431V187.587ZM195.431 187.587L199.847 185.242L175.35 139.124L170.934 141.469L166.518 143.815L191.015 189.933L195.431 187.587ZM170.934 141.469L170.907 136.469L93.5894 136.883L93.6162 141.883L93.643 146.883L170.961 146.469L170.934 141.469Z" fill="white"/>
</svg>
