<svg width="783" height="187" viewBox="0 0 783 187" fill="none" xmlns="http://www.w3.org/2000/svg">
<path fill-rule="evenodd" clip-rule="evenodd" d="M141.503 187C140.257 138.629 42.8495 43.384 3.73688 3.98932C4.23513 91.256 13.7019 132.396 20.6774 187H0V0H27.6529C64.7725 38.148 108.619 80.5347 139.759 127.409C136.77 75.2987 129.794 41.6387 124.563 0H145.24V187H141.503ZM339.973 187H317.302L286.411 118.433C286.411 153.34 264.239 187 223.631 187C190.747 187 170.568 163.812 174.055 132.396C176.547 109.457 190.747 88.264 203.203 69.564C218.4 46.8747 229.859 28.1747 233.347 0H256.267L339.973 187ZM236.337 6.73201C232.6 27.4267 223.88 45.3787 213.417 63.8293C202.206 83.776 187.259 108.46 189.75 132.147C192.242 156.831 211.673 174.284 240.572 169.048C265.235 164.809 291.393 129.404 280.681 105.717L236.337 6.73201ZM360.401 0H381.078V183.26C435.138 183.011 460.3 173.536 493.683 166.305V187H360.401V0ZM557.127 187H536.449V109.457L474.168 0H498.084L556.628 102.725C576.309 68.068 590.509 32.164 598.731 0H619.408L557.127 109.457V187ZM658.438 0V107.961C694.81 73.0547 728.94 38.6467 762.323 0H783L693.564 81.532C700.54 78.7893 708.263 77.044 715.736 78.0413C726.2 79.0387 732.926 83.776 737.908 90.7573C753.354 111.452 760.579 152.343 775.277 178.273C777.519 181.764 780.26 185.504 783 187H765.063C754.849 187 753.852 182.263 750.115 174.533C741.147 154.337 732.428 117.685 720.22 98.4867C709.508 81.7813 694.81 80.5347 680.36 93.7493L658.438 113.696V187H637.76V0H658.438Z" fill="black"/>
</svg>
